<?xml version="1.0" standalone="no"?><!DOCTYPE svg PUBLIC "-//W3C//DTD SVG 1.1//EN" "http://www.w3.org/Graphics/SVG/1.1/DTD/svg11.dtd"><svg t="1720777327536" class="icon" viewBox="0 0 1029 1024" version="1.1" xmlns="http://www.w3.org/2000/svg" p-id="8361" xmlns:xlink="http://www.w3.org/1999/xlink" width="24.1171875" height="24"><path d="M5.094527 514.547264c0 281.21791 228.234826 509.452736 509.452737 509.452736s509.452736-228.234826 509.452736-509.452736S795.765174 5.094527 514.547264 5.094527 5.094527 233.329353 5.094527 514.547264z" fill="#323232" p-id="8362"></path><path d="M109.532338 514.547264c0 223.649751 181.365174 405.014925 405.014926 405.014925s405.014925-181.365174 405.014925-405.014925-181.365174-405.014925-405.014925-405.014926S109.532338 290.897512 109.532338 514.547264z" fill="#494A4A" p-id="8363"></path><path d="M743.800995 357.126368v277.142289l-279.689552-1.018906V294.463682l224.159204 0.509452L743.800995 357.126368z" fill="#323232" p-id="8364"></path><path d="M743.800995 357.126368h-57.058706V294.463682L743.800995 357.126368zM542.057711 411.637811h114.117413v11.717413h-114.117413v-11.717413zM542.057711 484.999005h153.345274v11.717413h-153.345274v-11.717413zM542.057711 558.360199h153.345274v11.717413h-153.345274v-11.717413z" fill="#323232" p-id="8365"></path><path d="M603.19204 484.999005v288.859701l-291.406965-1.018905V419.789055l233.329353 0.509452 58.077612 64.700498z" fill="#323232" p-id="8366"></path><path d="M603.19204 484.999005h-59.096518V419.789055l59.096518 65.20995zM393.806965 280.199005l-60.115423-39.737313v31.076616H300.577114c-37.699502 0-68.266667 30.567164-68.266666 68.266667v43.812935c0 7.132338 5.60398 12.736318 12.736318 12.736319s12.736318-5.60398 12.736319-12.736319v-43.812935c0-23.944279 19.359204-43.303483 43.303482-43.303482h33.114428v23.434825L393.806965 280.199005zM655.665672 769.273632l60.115423 39.737313v-31.076617h33.114427c37.699502 0 68.266667-30.567164 68.266667-68.266666v-43.812936c0-7.132338-5.60398-12.736318-12.736318-12.736318s-12.736318 5.60398-12.736319 12.736318v43.812936c0 23.944279-19.359204 43.303483-43.303482 43.303482h-33.114428v-23.434826l-59.60597 39.737314z" fill="#323232" p-id="8367"></path><path d="M735.649751 341.842786v277.142289l-279.689552-1.018906V279.1801l224.159204 0.509452 55.530348 62.153234z" fill="#C7CCD1" p-id="8368"></path><path d="M735.649751 341.842786h-57.058706V279.1801l57.058706 62.662686zM533.397015 396.354229h114.117413v11.717413h-114.117413v-11.717413zM533.397015 469.715423h153.345274v11.717413h-153.345274v-11.717413zM533.397015 543.076617h153.345274v11.717413h-153.345274v-11.717413z" fill="#A8ACB7" p-id="8369"></path><path d="M595.040796 469.715423v288.859701l-291.406965-1.018905V404.505473l233.329353 0.509452 58.077612 64.700498z" fill="#E7EAF1" p-id="8370"></path><path d="M595.040796 469.715423h-59.096517V404.505473l59.096517 65.20995z" fill="#D2D5D8" p-id="8371"></path><path d="M385.655721 264.915423l-60.115422-39.737314v31.076617h-33.114428c-37.699502 0-68.266667 30.567164-68.266667 68.266667v43.812935c0 7.132338 5.60398 12.736318 12.736318 12.736319s12.736318-5.60398 12.736319-12.736319v-43.812935c0-23.944279 19.359204-43.303483 43.303482-43.303483H326.049751v23.434826L385.655721 264.915423z" fill="#FCAE32" p-id="8372"></path><path d="M647.004975 753.99005l60.115423 39.737313v-31.076617h33.114428c37.699502 0 68.266667-30.567164 68.266667-68.266666v-43.812936c0-7.132338-5.60398-12.736318-12.736319-12.736318s-12.736318 5.60398-12.736318 12.736318v43.812936c0 23.944279-19.359204 43.303483-43.303483 43.303482h-33.114428v-23.434826L647.004975 753.99005z" fill="#0788FF" p-id="8373"></path><path d="M405.014925 563.964179h23.434826v42.284577c2.547264-2.547264 5.60398-5.60398 8.151244-9.170149l2.547264 10.189055c-6.113433 6.622886-12.736318 12.736318-19.359204 17.830845l-3.566169-8.660696c2.037811-1.528358 2.547264-3.566169 2.547263-5.60398v-37.699503h-14.264676v-9.170149z m13.755224-30.057711c6.622886 5.094527 12.736318 10.189055 17.321393 15.283582l-6.622885 6.622885c-4.075622-5.094527-10.189055-10.189055-17.321393-15.283582l6.622885-6.622885z m23.944279 3.056716h50.435821v8.151244c-2.547264 7.132338-7.641791 13.245771-14.77413 18.340298 6.113433 2.547264 13.755224 4.075622 22.925374 5.094528l-3.56617 8.660696c-11.717413-1.528358-20.887562-4.075622-28.529353-8.151244-7.641791 3.566169-17.321393 7.132338-29.038806 9.679602l-4.585074-8.151243c9.679602-2.037811 17.830846-4.585075 24.963184-7.132339-5.60398-4.585075-9.170149-10.698507-11.717413-17.321393h-6.113433v-9.170149z m3.056716 46.869652h18.849752V575.681592H473.791045v8.660697h20.378109v8.660696h-20.378109v9.679602h25.472637v9.170149h-25.472637v17.321393h-9.679602v-17.321393h-23.434826v-9.170149h23.434826v-9.679602h-18.849751v-9.170149z m12.736319-38.208955c2.547264 5.094527 6.113433 9.170149 11.20796 12.736318 6.113433-3.566169 10.698507-8.151244 13.245771-12.736318H458.507463z" fill="#494A4A" p-id="8374"></path></svg>