<?xml version="1.0" standalone="no"?><!DOCTYPE svg PUBLIC "-//W3C//DTD SVG 1.1//EN" "http://www.w3.org/Graphics/SVG/1.1/DTD/svg11.dtd"><svg t="1721987220006" class="icon" viewBox="0 0 1024 1024" version="1.1" xmlns="http://www.w3.org/2000/svg" p-id="6492" width="32" height="32" xmlns:xlink="http://www.w3.org/1999/xlink"><path d="M544 768h96a32 32 0 0 1 0 64h-256a32 32 0 0 1 0-64h96v-66.24A224.064 224.064 0 0 1 288 480v-32a32 32 0 1 1 64 0v32a160 160 0 0 0 320 0v-32a32 32 0 0 1 64 0v32a224.064 224.064 0 0 1-192 221.76V768z m-32-192a96 96 0 0 1-96-96V288a96 96 0 1 1 192 0v192a96 96 0 0 1-96 96z m0-320a32 32 0 0 0-32 32v192a32 32 0 1 0 64 0V288a32 32 0 0 0-32-32z" fill="#000000" p-id="6493"></path></svg>