<?xml version="1.0" standalone="no"?><!DOCTYPE svg PUBLIC "-//W3C//DTD SVG 1.1//EN" "http://www.w3.org/Graphics/SVG/1.1/DTD/svg11.dtd"><svg t="1720017503042" class="icon" viewBox="0 0 1024 1024" version="1.1" xmlns="http://www.w3.org/2000/svg" p-id="1104" xmlns:xlink="http://www.w3.org/1999/xlink" width="200" height="200"><path d="M976 464L511.2 192 48 464v48l464 208 464-208v-48z" fill="#ACB7D0" p-id="1105"></path><path d="M355.84 79.04H768a48 48 0 0 1 48 48v448l-304.8 144-303.2-144V226.88a48 48 0 0 1 14.08-33.92l99.84-99.84a48 48 0 0 1 33.92-14.08z" fill="#BBDEF9" p-id="1106"></path><path d="M816 471.52V138.08L401.12 662.08 464 704l128-16 84.8-40.48 139.2-176zM364.64 640L808 80H736L304 625.6l60.64 14.4zM256 611.36L696 80H672L240 600.48l16 10.88z" fill="#CCE7FC" p-id="1107"></path><path d="M712 208l19.84 36.16L768 264l-36.16 19.84L712 320l-19.84-36.16L656 264l36.16-19.84L712 208zM634.4 496l9.28 16.96 17.12 9.44-17.12 9.28-9.28 17.12-9.44-17.12-16.96-9.28 16.96-9.44 9.44-16.96z" fill="#FFFFFF" p-id="1108"></path><path d="M368 79.04v160H208l160-160z" fill="#FFEFB8" p-id="1109"></path><path d="M944 947.68H78.24a32 32 0 0 1-32-32V509.92l465.76 208 464-208v405.76a32 32 0 0 1-32 32z" fill="#FAEFDE" p-id="1110"></path><path d="M110.24 832H912a64 64 0 0 1 64 64v19.68a32 32 0 0 1-32 32H78.24a32 32 0 0 1-32-32V896a64 64 0 0 1 64-64z" fill="#EFD8BE" p-id="1111"></path><path d="M968.64 440.96L832 358.88V112a48 48 0 0 0-48-48H378.56a80 80 0 0 0-56.64 23.36l-106.56 106.56A80 80 0 0 0 192 250.56v108.48l-136.64 81.92A48 48 0 0 0 32 482.08V912a48 48 0 0 0 48 48h864a48 48 0 0 0 48-48V482.08a48 48 0 0 0-23.36-41.12z m-624-330.88A48 48 0 0 1 352 104V208a16 16 0 0 1-16 16h-104a48 48 0 0 1 6.08-7.36z m-272 358.4L192 396.32V496a16 16 0 0 0 32 0V256h112a48 48 0 0 0 48-48V96h400a16 16 0 0 1 16 16v384a16 16 0 0 0 32 0v-99.68l120.16 72.16a16 16 0 0 1 7.84 13.76v19.52l-428.32 192a48 48 0 0 1-39.2 0L64 501.6v-19.52a16 16 0 0 1 7.84-13.76zM944 928H80a16 16 0 0 1-16-16V536.64l416 186.24a80 80 0 0 0 65.44 0L960 536.64V912a16 16 0 0 1-16 16z" fill="#8D6C9F" p-id="1112"></path><path d="M192 800a16 16 0 0 0-16 16v32a16 16 0 0 0 32 0v-32a16 16 0 0 0-16-16zM112 800a16 16 0 0 0-16 16v32a16 16 0 0 0 32 0v-32a16 16 0 0 0-16-16zM272 800a16 16 0 0 0-16 16v32a16 16 0 0 0 32 0v-32a16 16 0 0 0-16-16zM352 800a16 16 0 0 0-16 16v32a16 16 0 0 0 32 0v-32a16 16 0 0 0-16-16zM432 800a16 16 0 0 0-16 16v32a16 16 0 0 0 32 0v-32a16 16 0 0 0-16-16zM512 800a16 16 0 0 0-16 16v32a16 16 0 0 0 32 0v-32a16 16 0 0 0-16-16zM592 800a16 16 0 0 0-16 16v32a16 16 0 0 0 32 0v-32a16 16 0 0 0-16-16zM672 800a16 16 0 0 0-16 16v32a16 16 0 0 0 32 0v-32a16 16 0 0 0-16-16zM752 800a16 16 0 0 0-16 16v32a16 16 0 0 0 32 0v-32a16 16 0 0 0-16-16zM832 800a16 16 0 0 0-16 16v32a16 16 0 0 0 32 0v-32a16 16 0 0 0-16-16zM912 800a16 16 0 0 0-16 16v32a16 16 0 0 0 32 0v-32a16 16 0 0 0-16-16zM411.36 395.36l84.64-84.8V592a16 16 0 0 0 32 0V310.56l84.64 84.64a16 16 0 0 0 22.56-22.56l-112-112a16 16 0 0 0-22.56 0l-112 112a16 16 0 0 0 22.56 22.56z" fill="#8D6C9F" p-id="1113"></path><path d="M342.72 432l13.6 24.96 25.12 13.76-25.12 13.6-13.6 25.12-13.76-25.12-24.96-13.6 24.96-13.76 13.76-24.96z" fill="#FFFFFF" p-id="1114"></path></svg>