<?xml version="1.0" standalone="no"?><!DOCTYPE svg PUBLIC "-//W3C//DTD SVG 1.1//EN" "http://www.w3.org/Graphics/SVG/1.1/DTD/svg11.dtd"><svg t="1720018132232" class="icon" viewBox="0 0 1024 1024" version="1.1" xmlns="http://www.w3.org/2000/svg" p-id="21055" xmlns:xlink="http://www.w3.org/1999/xlink" width="200" height="200"><path d="M85.333333 234.666667a170.666667 170.666667 0 0 1 170.666667-170.666667h512a170.666667 170.666667 0 0 1 170.666667 170.666667v554.666666a170.666667 170.666667 0 0 1-170.666667 170.666667H256a170.666667 170.666667 0 0 1-170.666667-170.666667V234.666667z" fill="#F0E9E2" p-id="21056"></path><path d="M85.333333 234.666667a170.666667 170.666667 0 0 1 170.666667-170.666667h384l298.666667 277.333333v384a170.666667 170.666667 0 0 1-170.666667 170.666667H256a170.666667 170.666667 0 0 1-170.666667-170.666667V234.666667z" fill="#E3DCD6" p-id="21057"></path><path d="M85.333333 234.666667a170.666667 170.666667 0 0 1 170.666667-170.666667h384l298.666667 277.333333v384a170.666667 170.666667 0 0 1-170.666667 170.666667H256a170.666667 170.666667 0 0 1-170.666667-170.666667V234.666667z" fill="#FDF6EF" p-id="21058"></path><path d="M640 85.333333l273.685333 252.352L938.666667 341.333333v42.666667l-225.408-32.213333A85.333333 85.333333 0 0 1 640 267.306667V85.333333z" fill="#DBD2CB" p-id="21059"></path><path d="M640 64l298.666667 277.333333-225.408-32.213333A85.333333 85.333333 0 0 1 640 224.64V64z" fill="#E3DCD6" p-id="21060"></path><path d="M277.333333 330.666667a32 32 0 1 1-64 0 32 32 0 0 1 64 0z" fill="#381715" p-id="21061"></path><path d="M320 330.666667a21.333333 21.333333 0 0 1 21.333333-21.333334h256a21.333333 21.333333 0 1 1 0 42.666667H341.333333a21.333333 21.333333 0 0 1-21.333333-21.333333z" fill="#EF4D43" p-id="21062"></path><path d="M277.333333 480a32 32 0 1 1-64 0 32 32 0 0 1 64 0z" fill="#381715" p-id="21063"></path><path d="M320 480a21.333333 21.333333 0 0 1 21.333333-21.333333h469.333334a21.333333 21.333333 0 1 1 0 42.666666H341.333333a21.333333 21.333333 0 0 1-21.333333-21.333333z" fill="#EF4D43" p-id="21064"></path><path d="M277.333333 629.333333a32 32 0 1 1-64 0 32 32 0 0 1 64 0z" fill="#381715" p-id="21065"></path><path d="M320 629.333333a21.333333 21.333333 0 0 1 21.333333-21.333333h469.333334a21.333333 21.333333 0 1 1 0 42.666667H341.333333a21.333333 21.333333 0 0 1-21.333333-21.333334z" fill="#EF4D43" p-id="21066"></path><path d="M277.333333 778.666667a32 32 0 1 1-64 0 32 32 0 0 1 64 0z" fill="#381715" p-id="21067"></path><path d="M320 778.666667a21.333333 21.333333 0 0 1 21.333333-21.333334h469.333334a21.333333 21.333333 0 1 1 0 42.666667H341.333333a21.333333 21.333333 0 0 1-21.333333-21.333333z" fill="#EF4D43" p-id="21068"></path></svg>